<svg xmlns="http://www.w3.org/2000/svg" xmlns:xlink="http://www.w3.org/1999/xlink" width="500" zoomAndPan="magnify" viewBox="0 0 375 374.999991" height="500" preserveAspectRatio="xMidYMid meet" version="1.0"><defs><clipPath id="c947659831"><path d="M 187.5 0 L 375 0 L 375 375 L 187.5 375 Z M 187.5 0 " clip-rule="nonzero"/></clipPath><clipPath id="4baf79b4be"><path d="M 0.5 0 L 188 0 L 188 375 L 0.5 375 Z M 0.5 0 " clip-rule="nonzero"/></clipPath><clipPath id="800506ebed"><rect x="0" width="188" y="0" height="375"/></clipPath><clipPath id="1a9037fd14"><path d="M 0.75 0.09375 L 188.25 0.09375 L 188.25 375 L 0.75 375 Z M 0.75 0.09375 " clip-rule="nonzero"/></clipPath><clipPath id="658d4962bd"><path d="M 0.75 0.09375 L 188.25 0.09375 L 188.25 375 L 0.75 375 Z M 0.75 0.09375 " clip-rule="nonzero"/></clipPath><clipPath id="2f40549d22"><rect x="0" width="189" y="0" height="375"/></clipPath><clipPath id="a8108a431b"><path d="M 353.152344 0 L 375 0 L 375 375 L 353.152344 375 Z M 353.152344 0 " clip-rule="nonzero"/></clipPath><clipPath id="a4e870dd54"><path d="M 0.152344 0 L 22 0 L 22 375 L 0.152344 375 Z M 0.152344 0 " clip-rule="nonzero"/></clipPath><clipPath id="97139c6efa"><rect x="0" width="22" y="0" height="375"/></clipPath><clipPath id="5d0d2122b4"><path d="M 188.25 357.140625 L 353.902344 357.140625 L 353.902344 375 L 188.25 375 Z M 188.25 357.140625 " clip-rule="nonzero"/></clipPath><clipPath id="f475fbc1c2"><path d="M 0.25 0.140625 L 165.902344 0.140625 L 165.902344 18 L 0.25 18 Z M 0.25 0.140625 " clip-rule="nonzero"/></clipPath><clipPath id="4912dd5394"><rect x="0" width="166" y="0" height="18"/></clipPath><clipPath id="b18ebf872f"><path d="M 188.25 0 L 353.902344 0 L 353.902344 18.050781 L 188.25 18.050781 Z M 188.25 0 " clip-rule="nonzero"/></clipPath><clipPath id="358ccfd05f"><path d="M 0.25 0 L 165.902344 0 L 165.902344 18.050781 L 0.25 18.050781 Z M 0.25 0 " clip-rule="nonzero"/></clipPath><clipPath id="0594cf64c0"><rect x="0" width="166" y="0" height="19"/></clipPath><clipPath id="c4da8bee6e"><path d="M 0 0.1875 L 23.347656 0.1875 L 23.347656 375 L 0 375 Z M 0 0.1875 " clip-rule="nonzero"/></clipPath><clipPath id="b48bfc725c"><path d="M 0 0.1875 L 23.347656 0.1875 L 23.347656 375 L 0 375 Z M 0 0.1875 " clip-rule="nonzero"/></clipPath><clipPath id="54a7f47b72"><rect x="0" width="24" y="0" height="375"/></clipPath><clipPath id="410d4f9935"><path d="M 22.585938 0 L 188.242188 0 L 188.242188 18.042969 L 22.585938 18.042969 Z M 22.585938 0 " clip-rule="nonzero"/></clipPath><clipPath id="7e6940dd65"><path d="M 0.585938 0 L 166.242188 0 L 166.242188 18.042969 L 0.585938 18.042969 Z M 0.585938 0 " clip-rule="nonzero"/></clipPath><clipPath id="cdf4add0b1"><rect x="0" width="167" y="0" height="19"/></clipPath><clipPath id="443a672916"><path d="M 22.585938 357.132812 L 188.242188 357.132812 L 188.242188 375 L 22.585938 375 Z M 22.585938 357.132812 " clip-rule="nonzero"/></clipPath><clipPath id="52df31598c"><path d="M 0.585938 0.132812 L 166.242188 0.132812 L 166.242188 18 L 0.585938 18 Z M 0.585938 0.132812 " clip-rule="nonzero"/></clipPath><clipPath id="29cf757993"><rect x="0" width="167" y="0" height="18"/></clipPath><clipPath id="ed22ff32bf"><path d="M 67.21875 98.015625 L 129.875 98.015625 L 129.875 268.808594 L 67.21875 268.808594 Z M 67.21875 98.015625 " clip-rule="nonzero"/></clipPath><clipPath id="bc8cebd01e"><path d="M 0.21875 0.015625 L 62.875 0.015625 L 62.875 170.808594 L 0.21875 170.808594 Z M 0.21875 0.015625 " clip-rule="nonzero"/></clipPath><clipPath id="a2d675ed6c"><rect x="0" width="63" y="0" height="171"/></clipPath><clipPath id="85f2db6d48"><path d="M 237.808594 142.40625 L 304.140625 142.40625 L 304.140625 268.808594 L 237.808594 268.808594 Z M 237.808594 142.40625 " clip-rule="nonzero"/></clipPath><clipPath id="0ae9400bf1"><path d="M 0.808594 0.40625 L 67.140625 0.40625 L 67.140625 126.808594 L 0.808594 126.808594 Z M 0.808594 0.40625 " clip-rule="nonzero"/></clipPath><clipPath id="f78eb34602"><rect x="0" width="68" y="0" height="127"/></clipPath><clipPath id="1deb467cef"><path d="M 0 52.277344 L 15.539062 52.277344 L 15.539062 375 L 0 375 Z M 0 52.277344 " clip-rule="nonzero"/></clipPath><clipPath id="8d17c9a5de"><path d="M 0 0.277344 L 15.539062 0.277344 L 15.539062 323 L 0 323 Z M 0 0.277344 " clip-rule="nonzero"/></clipPath><clipPath id="3211155147"><rect x="0" width="16" y="0" height="323"/></clipPath><clipPath id="b465978ac5"><path d="M 129.875 0 L 175.785156 0 L 175.785156 8.238281 L 129.875 8.238281 Z M 129.875 0 " clip-rule="nonzero"/></clipPath><clipPath id="73d1683fc3"><path d="M 0.875 0 L 46.785156 0 L 46.785156 8.238281 L 0.875 8.238281 Z M 0.875 0 " clip-rule="nonzero"/></clipPath><clipPath id="c094aec7f4"><rect x="0" width="47" y="0" height="9"/></clipPath><clipPath id="634677c9da"><path d="M 364.835938 52.277344 L 375 52.277344 L 375 375 L 364.835938 375 Z M 364.835938 52.277344 " clip-rule="nonzero"/></clipPath><clipPath id="4ca0920bed"><path d="M 0.835938 0.277344 L 11 0.277344 L 11 323 L 0.835938 323 Z M 0.835938 0.277344 " clip-rule="nonzero"/></clipPath><clipPath id="d3c1eee507"><rect x="0" width="11" y="0" height="323"/></clipPath><clipPath id="7c6dc68a03"><path d="M 253.734375 0 L 306.652344 0 L 306.652344 8.238281 L 253.734375 8.238281 Z M 253.734375 0 " clip-rule="nonzero"/></clipPath><clipPath id="b30f69cdb5"><path d="M 0.734375 0 L 53.652344 0 L 53.652344 8.238281 L 0.734375 8.238281 Z M 0.734375 0 " clip-rule="nonzero"/></clipPath><clipPath id="09bbadb1ad"><rect x="0" width="54" y="0" height="9"/></clipPath></defs><rect x="-37.5" width="450" fill="#ffffff" y="-37.499999" height="449.999989" fill-opacity="1"/><rect x="-37.5" width="450" fill="#e3e0e1" y="-37.499999" height="449.999989" fill-opacity="1"/><g clip-path="url(#c947659831)"><g transform="matrix(1, 0, 0, 1, 187, 0)"><g clip-path="url(#800506ebed)"><g clip-path="url(#4baf79b4be)"><path fill="#bab6d4" d="M 0.5 0 L 188 0 L 188 375 L 0.5 375 Z M 0.5 0 " fill-opacity="1" fill-rule="nonzero"/></g></g></g></g><g clip-path="url(#1a9037fd14)"><g><g clip-path="url(#2f40549d22)"><g clip-path="url(#658d4962bd)"><path fill="#767586" d="M 0.75 0.09375 L 188.25 0.09375 L 188.25 375.09375 L 0.75 375.09375 Z M 0.75 0.09375 " fill-opacity="1" fill-rule="nonzero"/></g></g></g></g><g clip-path="url(#a8108a431b)"><g transform="matrix(1, 0, 0, 1, 353, 0)"><g clip-path="url(#97139c6efa)"><g clip-path="url(#a4e870dd54)"><path fill="#4a4a4a" d="M 0.152344 0 L 112.652344 0 L 112.652344 374.851562 L 0.152344 374.851562 Z M 0.152344 0 " fill-opacity="1" fill-rule="nonzero"/></g></g></g></g><g clip-path="url(#5d0d2122b4)"><g transform="matrix(1, 0, 0, 1, 188, 357)"><g clip-path="url(#4912dd5394)"><g clip-path="url(#f475fbc1c2)"><path fill="#4a4a4a" d="M 0.25 0.140625 L 165.933594 0.140625 L 165.933594 36.238281 L 0.25 36.238281 Z M 0.25 0.140625 " fill-opacity="1" fill-rule="nonzero"/></g></g></g></g><g clip-path="url(#b18ebf872f)"><g transform="matrix(1, 0, 0, 1, 188, 0)"><g clip-path="url(#0594cf64c0)"><g clip-path="url(#358ccfd05f)"><path fill="#4a4a4a" d="M 0.25 -18.050781 L 165.933594 -18.050781 L 165.933594 18.050781 L 0.25 18.050781 Z M 0.25 -18.050781 " fill-opacity="1" fill-rule="nonzero"/></g></g></g></g><g clip-path="url(#c4da8bee6e)"><g transform="matrix(1, 0, 0, 1, 0, 0)"><g clip-path="url(#54a7f47b72)"><g clip-path="url(#b48bfc725c)"><path fill="#cccccc" d="M 23.347656 375.1875 L -89.152344 375.1875 L -89.152344 0.335938 L 23.347656 0.335938 Z M 23.347656 375.1875 " fill-opacity="1" fill-rule="nonzero"/></g></g></g></g><g clip-path="url(#410d4f9935)"><g transform="matrix(1, 0, 0, 1, 22, 0)"><g clip-path="url(#cdf4add0b1)"><g clip-path="url(#7e6940dd65)"><path fill="#cccccc" d="M 166.242188 18.042969 L 0.554688 18.042969 L 0.554688 -18.054688 L 166.242188 -18.054688 Z M 166.242188 18.042969 " fill-opacity="1" fill-rule="nonzero"/></g></g></g></g><g clip-path="url(#443a672916)"><g transform="matrix(1, 0, 0, 1, 22, 357)"><g clip-path="url(#29cf757993)"><g clip-path="url(#52df31598c)"><path fill="#cccccc" d="M 166.242188 36.234375 L 0.554688 36.234375 L 0.554688 0.132812 L 166.242188 0.132812 Z M 166.242188 36.234375 " fill-opacity="1" fill-rule="nonzero"/></g></g></g></g><g clip-path="url(#ed22ff32bf)"><g transform="matrix(1, 0, 0, 1, 67, 98)"><g clip-path="url(#a2d675ed6c)"><g clip-path="url(#bc8cebd01e)"><path fill="#bab6d4" d="M 0.21875 0.015625 L 62.875 0.015625 L 62.875 170.847656 L 0.21875 170.847656 Z M 0.21875 0.015625 " fill-opacity="1" fill-rule="nonzero"/></g></g></g></g><g clip-path="url(#85f2db6d48)"><g transform="matrix(1, 0, 0, 1, 237, 142)"><g clip-path="url(#f78eb34602)"><g clip-path="url(#0ae9400bf1)"><path fill="#767586" d="M 0.808594 0.40625 L 67.140625 0.40625 L 67.140625 126.859375 L 0.808594 126.859375 Z M 0.808594 0.40625 " fill-opacity="1" fill-rule="nonzero"/></g></g></g></g><g clip-path="url(#1deb467cef)"><g transform="matrix(1, 0, 0, 1, 0, 52)"><g clip-path="url(#3211155147)"><g clip-path="url(#8d17c9a5de)"><path fill="#ededed" d="M -96.960938 0.277344 L 15.539062 0.277344 L 15.539062 341.734375 L -96.960938 341.734375 Z M -96.960938 0.277344 " fill-opacity="1" fill-rule="nonzero"/></g></g></g></g><g clip-path="url(#b465978ac5)"><g transform="matrix(1, 0, 0, 1, 129, 0)"><g clip-path="url(#c094aec7f4)"><g clip-path="url(#73d1683fc3)"><path fill="#ededed" d="M 0.875 -72.722656 L 46.785156 -72.722656 L 46.785156 8.160156 L 0.875 8.160156 Z M 0.875 -72.722656 " fill-opacity="1" fill-rule="nonzero"/></g></g></g></g><g clip-path="url(#634677c9da)"><g transform="matrix(1, 0, 0, 1, 364, 52)"><g clip-path="url(#d3c1eee507)"><g clip-path="url(#4ca0920bed)"><path fill="#262626" d="M 0.835938 0.277344 L 101.652344 0.277344 L 101.652344 322.816406 L 0.835938 322.816406 Z M 0.835938 0.277344 " fill-opacity="1" fill-rule="nonzero"/></g></g></g></g><g clip-path="url(#7c6dc68a03)"><g transform="matrix(1, 0, 0, 1, 253, 0)"><g clip-path="url(#09bbadb1ad)"><g clip-path="url(#b30f69cdb5)"><path fill="#262626" d="M 0.734375 -193.601562 L 53.652344 -193.601562 L 53.652344 8.15625 L 0.734375 8.15625 Z M 0.734375 -193.601562 " fill-opacity="1" fill-rule="nonzero"/></g></g></g></g></svg>